<svg enable-background="new 0 0 90 30" viewBox="0 0 90 30" xmlns="http://www.w3.org/2000/svg"><g fill="none" stroke="#000"><circle cx="15" cy="15" r="14.5"/><path d="m6.5 15h17" stroke-linecap="round" stroke-width="2"/><path d="m15.5 7 8 8" stroke-linecap="round" stroke-width="2"/><path d="m15.5 23 8-8" stroke-linecap="round" stroke-width="2"/></g><path d="m75 0c-8.3 0-15 6.7-15 15s6.7 15 15 15 15-6.7 15-15-6.7-15-15-15zm9.4 15.4c-.1.1-.1.2-.2.3l-8 8c-.2.2-.4.3-.7.3s-.5-.1-.7-.3c-.4-.4-.4-1 0-1.4l6.3-6.3h-14.6c-.6 0-1-.4-1-1s.4-1 1-1h14.6l-6.3-6.3c-.4-.4-.4-1 0-1.4s1-.4 1.4 0l8 8c.1.1.2.2.2.3.1.3.1.5 0 .8z"/></svg>